<?xml version="1.0" standalone="no"?>
<!DOCTYPE svg PUBLIC "-//W3C//DTD SVG 20010904//EN"
 "http://www.w3.org/TR/2001/REC-SVG-20010904/DTD/svg10.dtd">
<svg version="1.0" xmlns="http://www.w3.org/2000/svg"
 width="1920.000000pt" height="1080.000000pt" viewBox="0 0 1920.000000 1080.000000"
 preserveAspectRatio="xMidYMid meet">

<g transform="translate(0.000000,1080.000000) scale(0.100000,-0.100000)"
fill="#000000" stroke="none">
<path d="M10243 7585 c-18 -19 -33 -41 -33 -49 0 -8 -9 -17 -19 -21 -11 -3
-27 -18 -37 -33 -9 -15 -52 -62 -95 -104 -44 -42 -79 -82 -79 -88 0 -6 -31
-42 -70 -80 -38 -38 -70 -73 -70 -78 0 -5 -45 -56 -101 -113 -55 -57 -106
-115 -114 -129 -7 -14 -45 -56 -84 -92 -39 -37 -71 -72 -71 -78 0 -6 -40 -51
-90 -100 -49 -49 -90 -94 -90 -100 0 -5 -39 -51 -87 -101 -49 -50 -90 -96 -92
-102 -2 -7 -41 -49 -87 -95 -46 -45 -84 -87 -84 -92 0 -6 -45 -55 -100 -110
-55 -56 -100 -106 -100 -112 0 -12 -120 -144 -262 -289 -49 -49 -88 -93 -88
-98 0 -5 -35 -46 -77 -92 -43 -45 -81 -89 -85 -98 -3 -9 -22 -31 -42 -49 -69
-64 -79 -62 369 -62 l405 0 0 -25 c0 -14 -4 -25 -10 -25 -5 0 -10 -13 -10 -30
0 -16 -4 -30 -10 -30 -5 0 -10 -11 -10 -24 0 -14 -4 -28 -10 -31 -5 -3 -10
-15 -10 -26 0 -10 -4 -19 -10 -19 -5 0 -10 -9 -10 -20 0 -11 -5 -29 -10 -40
-6 -11 -15 -29 -20 -40 -6 -11 -10 -29 -10 -39 0 -11 -4 -23 -10 -26 -5 -3
-10 -15 -10 -25 0 -11 -9 -35 -20 -55 -11 -20 -20 -44 -20 -55 0 -10 -4 -22
-10 -25 -5 -3 -10 -15 -10 -26 0 -10 -4 -19 -10 -19 -5 0 -10 -13 -10 -30 0
-16 -4 -30 -10 -30 -5 0 -10 -9 -10 -19 0 -11 -4 -23 -10 -26 -5 -3 -10 -17
-10 -31 0 -13 -4 -24 -10 -24 -5 0 -10 -11 -10 -24 0 -14 -4 -28 -10 -31 -5
-3 -10 -15 -10 -26 0 -10 -4 -19 -10 -19 -5 0 -10 -13 -10 -30 0 -16 -4 -30
-10 -30 -5 0 -10 -9 -10 -19 0 -11 -4 -23 -10 -26 -5 -3 -10 -17 -10 -30 0
-13 -4 -27 -10 -30 -5 -3 -10 -15 -10 -25 0 -11 -9 -35 -20 -55 -11 -20 -20
-40 -20 -45 0 -6 -8 -29 -19 -53 -10 -23 -24 -58 -31 -77 -8 -19 -19 -42 -27
-51 -7 -8 -13 -25 -13 -37 0 -12 -13 -50 -30 -84 -16 -34 -30 -72 -30 -85 0
-13 -4 -23 -10 -23 -5 0 -10 -9 -10 -20 0 -11 -4 -20 -10 -20 -5 0 -10 -13
-10 -30 0 -16 -4 -30 -10 -30 -5 0 -10 -13 -10 -30 0 -16 -4 -30 -10 -30 -5 0
-10 -9 -10 -19 0 -11 -6 -22 -12 -24 -10 -4 -10 -6 0 -6 13 -1 182 163 182
177 0 4 38 47 85 95 47 48 85 92 85 97 0 5 36 45 80 89 44 45 80 85 80 91 0 6
8 14 18 17 22 9 42 29 42 43 0 6 22 32 48 58 26 26 51 55 55 65 3 9 13 17 21
17 8 0 17 9 21 19 3 11 12 22 20 25 8 3 15 11 15 18 0 7 29 40 65 74 36 34 65
67 65 72 0 6 45 56 100 112 55 55 100 104 100 110 0 5 34 44 76 87 42 43 88
94 102 113 15 19 61 70 104 112 43 43 78 81 78 87 0 5 43 52 95 105 52 53 95
101 95 107 0 6 29 41 64 78 36 36 79 84 96 106 17 22 63 70 101 106 38 37 69
72 69 78 0 6 41 52 90 102 50 49 90 94 90 100 0 5 -159 9 -402 9 -222 0 -409
4 -415 8 -10 6 -8 22 9 70 11 34 25 62 29 62 5 0 9 9 9 20 0 11 5 20 10 20 6
0 10 14 10 30 0 17 5 30 10 30 6 0 10 14 10 30 0 17 5 30 10 30 6 0 10 9 10
20 0 11 5 20 10 20 6 0 10 14 10 30 0 17 5 30 10 30 6 0 10 9 10 19 0 11 5 23
10 26 6 3 10 15 10 25 0 11 9 35 20 55 11 20 20 44 20 55 0 10 5 22 10 25 6 3
10 15 10 25 0 11 9 35 20 55 11 20 20 47 20 60 0 14 5 25 10 25 6 0 10 9 10
20 0 11 5 20 10 20 6 0 10 14 10 30 0 17 5 30 10 30 6 0 10 14 10 30 0 17 5
30 10 30 6 0 10 9 10 20 0 11 5 20 10 20 6 0 10 9 10 20 0 20 4 29 28 77 7 13
12 30 12 38 0 8 5 25 12 38 23 46 28 57 28 69 0 11 10 34 52 120 4 10 8 25 8
33 0 8 4 23 9 33 41 83 61 129 61 139 0 10 15 43 51 115 5 10 9 29 9 42 0 14
5 28 10 31 6 3 10 15 10 25 0 10 6 21 13 23 8 4 7 5 -3 6 -8 0 -30 -16 -47
-34z"/>
<path d="M5387 7463 c-4 -3 -7 -188 -7 -410 l0 -403 543 0 543 0 24 -27 23
-27 -1 -1400 c0 -771 2 -1409 4 -1418 7 -24 59 -37 129 -32 53 5 201 4 500 0
50 -1 94 0 99 3 19 9 132 8 143 -1 9 -7 22 -7 43 2 l30 12 0 1428 c0 786 3
1435 6 1444 5 14 62 16 540 16 l534 0 0 398 c0 296 -3 401 -12 410 -9 9 -372
12 -1573 12 -859 0 -1565 -3 -1568 -7z"/>
<path d="M10620 5615 l0 -1855 450 0 450 0 2 548 3 547 335 3 c203 1 338 6
344 12 6 6 52 10 103 10 55 0 93 4 93 10 0 6 18 10 39 10 22 0 43 5 46 10 3 6
22 10 41 10 19 0 54 9 76 20 23 11 52 20 64 20 13 0 26 5 29 10 3 6 17 10 31
10 13 0 24 5 24 10 0 6 9 10 20 10 11 0 20 5 20 10 0 6 9 10 20 10 11 0 20 5
20 10 0 6 9 10 20 10 11 0 20 5 20 10 0 6 9 10 20 10 11 0 20 5 20 10 0 6 6
10 13 10 7 0 23 9 35 20 12 11 26 20 33 20 6 0 24 14 39 30 15 17 33 30 39 30
15 0 181 162 181 177 0 7 16 28 35 47 19 20 35 42 35 51 0 8 5 15 10 15 6 0
10 8 10 18 0 10 9 24 20 32 11 8 20 22 20 32 0 10 5 18 10 18 6 0 10 9 10 20
0 11 5 20 10 20 6 0 10 14 10 30 0 17 5 30 10 30 6 0 10 9 10 20 0 11 5 20 10
20 6 0 10 18 10 40 0 22 5 40 10 40 6 0 10 13 10 29 0 17 5 33 10 36 6 3 10
35 10 71 0 36 4 64 10 64 6 0 10 66 10 179 0 109 -4 182 -10 186 -5 3 -10 37
-10 76 0 39 -4 69 -10 69 -5 0 -10 14 -10 30 0 17 -4 30 -10 30 -5 0 -10 18
-10 40 0 22 -4 40 -10 40 -5 0 -10 9 -10 20 0 11 -4 20 -10 20 -5 0 -10 14
-10 30 0 17 -4 30 -10 30 -5 0 -10 9 -10 20 0 11 -4 20 -10 20 -5 0 -10 8 -10
18 0 10 -9 24 -20 32 -11 8 -20 22 -20 32 0 10 -4 18 -8 18 -5 0 -15 12 -22
28 -27 51 -182 222 -203 222 -5 0 -22 14 -37 30 -15 17 -32 30 -37 30 -6 0
-18 9 -28 20 -10 11 -25 20 -34 20 -9 0 -23 9 -31 20 -8 11 -22 20 -32 20 -10
0 -18 5 -18 10 0 6 -9 10 -20 10 -11 0 -20 3 -20 8 0 11 -51 32 -77 32 -13 0
-23 5 -23 10 0 6 -11 10 -24 10 -14 0 -27 4 -30 9 -3 5 -16 11 -28 14 -13 3
-41 11 -63 17 -56 16 -131 30 -190 36 -27 3 -59 9 -70 14 -33 16 -217 20 -987
26 l-738 5 0 -1856z m1505 1060 c50 -4 94 -11 99 -16 6 -5 20 -9 32 -9 13 0
26 -4 29 -10 3 -5 17 -10 30 -10 13 0 27 -4 30 -10 3 -5 15 -10 26 -10 10 0
19 -4 19 -10 0 -5 7 -10 15 -10 20 0 120 -100 145 -145 11 -20 20 -44 20 -55
0 -10 5 -22 10 -25 6 -3 10 -21 10 -40 0 -19 5 -37 10 -40 6 -3 10 -52 10
-110 0 -58 -4 -107 -10 -110 -5 -3 -10 -21 -10 -40 0 -19 -4 -37 -10 -40 -5
-3 -10 -15 -10 -26 0 -23 -17 -55 -49 -91 -13 -15 -29 -37 -35 -50 -6 -12 -22
-28 -34 -34 -13 -6 -33 -21 -46 -34 -30 -27 -113 -70 -137 -70 -10 0 -21 -4
-24 -10 -3 -5 -19 -10 -36 -10 -16 0 -29 -4 -29 -10 0 -6 -35 -10 -84 -10 -47
0 -88 -4 -91 -10 -4 -6 -88 -10 -219 -10 l-212 0 -25 33 -24 32 -2 475 -2 475
27 28 26 28 231 -5 c126 -3 271 -8 320 -11z"/>
</g>
</svg>
